<svg xmlns="http://www.w3.org/2000/svg" viewBox="0 0 711.41 148.08">
  <defs>
    <style>
      .cls-1 {
        fill: #fff;
      }
    </style>
  </defs>
  <title>ps4</title>
  <g id="Layer_2" data-name="Layer 2">
    <g id="Layer_1-2" data-name="Layer 1">
      <g>
        <g>
          <g>
            <polygon class="cls-1" points="695.83 117.22 692.44 117.22 692.44 116.06 700.49 116.06 700.49 117.22 697.14 117.22 697.14 126.31 695.83 126.31 695.83 117.22"/>
            <polygon class="cls-1" points="705.92 126.31 703.13 117.99 703.13 126.31 701.79 126.31 701.79 116.06 703.65 116.06 706.59 124.78 709.55 116.06 711.41 116.06 711.41 126.31 710.06 126.31 710.06 117.99 707.26 126.31 705.92 126.31"/>
          </g>
          <g>
            <path class="cls-1" d="M540.52,35.05H480.85c-17.31,0-25.78,10.67-25.78,24.55v42.2c0,8.59-4.08,14.78-12.68,14.78H386.3a.64.64,0,0,0-.64.64v8.48a.65.65,0,0,0,.65.64h62.56c17.31,0,25.79-10.64,25.79-24.52V59.6c0-8.61,4.08-14.8,12.67-14.8h53.19a.64.64,0,0,0,.64-.63V35.7a.65.65,0,0,0-.64-.65"/>
            <path class="cls-1" d="M364.24,35.08H256.29a.64.64,0,0,0-.64.64v8.47a.63.63,0,0,0,.65.64H357.76c8.6,0,12.68,6.19,12.68,14.79s-4.08,14.78-12.68,14.78H277.49c-12.45,0-21.84,10.47-21.84,24.36v27a.64.64,0,0,0,.65.64h18.3a.64.64,0,0,0,.64-.64v-27c0-8.6,5-14.6,12.06-14.6h76.94c17.31,0,25.78-10.64,25.78-24.52s-8.47-24.55-25.78-24.55"/>
            <path class="cls-1" d="M682.17,106.84H663.88a.66.66,0,0,1-.67-.64V44.77c0-9.43-6.52-12.52-15.7-6.86l-110,67.56c-4.32,2.66-5.77,5.66-4.73,7.87.9,1.91,3.28,3.24,8,3.24H643a.65.65,0,0,1,.58.48v8.62a.66.66,0,0,0,.64.66h18.37a.66.66,0,0,0,.64-.66v-8.44a.66.66,0,0,1,.64-.66h18.31a.66.66,0,0,0,.66-.65v-8.46a.66.66,0,0,0-.66-.64m-38.58-.69a.66.66,0,0,1-.64.67H557.3c-.69,0-1.06-.18-1.16-.44s.12-.7.63-1L642,52.85c.59-.36,1.58-.3,1.58.87Z"/>
          </g>
        </g>
        <g>
          <path class="cls-1" d="M71.76,0V138.16L103,148.08V32.19c0-5.41,2.42-9,6.32-7.78,5.11,1.42,6.1,6.41,6.1,11.83V82.52c19.49,9.41,34.83,0,34.83-24.84,0-25.49-9-36.79-35.44-45.89C104.42,8.3,85.07,2.46,71.76,0Z"/>
          <path class="cls-1" d="M109,127.89,159.24,110c5.7-2,6.58-4.94,1.95-6.46s-13-1.07-18.72,1L109,116.29V97.51l1.93-.65a115.39,115.39,0,0,1,23.29-5c13.62-1.47,30.29.2,43.38,5.17,14.75,4.67,16.4,11.53,12.66,16.25s-12.93,8.11-12.93,8.11L109,146Z"/>
          <path class="cls-1" d="M14.41,126C-.73,121.72-3.25,112.86,3.64,107.73,10,103,20.88,99.45,20.88,99.45L65.7,83.53v18.15L33.44,113.23c-5.7,2-6.56,4.94-1.94,6.45s13,1.08,18.73-1l15.47-5.6v16.25l-3.08.5A101.46,101.46,0,0,1,14.41,126"/>
          <path class="cls-1" d="M174.18,140.5a6.08,6.08,0,0,1,6.08-6.08,6.09,6.09,0,0,1,6.07,6.08,6.08,6.08,0,0,1-6.07,6.09,6.06,6.06,0,0,1-6.08-6.09Zm6.08,7.33a7.31,7.31,0,1,0-5.18-2.15,7.26,7.26,0,0,0,5.18,2.15"/>
          <path class="cls-1" d="M182.24,138.67a1.06,1.06,0,0,1-.35.93,2,2,0,0,1-1.07.26h-2.26v-2.31H181a1.62,1.62,0,0,1,.78.15A1,1,0,0,1,182.24,138.67Zm1.62,5.24a.52.52,0,0,1-.25-.36c0-.13,0-.33-.05-.62l-.05-1a1.79,1.79,0,0,0-.29-1.08,1.47,1.47,0,0,0-.48-.41,2,2,0,0,0,.61-.59,2.18,2.18,0,0,0,.32-1.24,2,2,0,0,0-1.2-2,3.53,3.53,0,0,0-1.54-.28h-3.79v8.14h1.42v-3.34h2.22a2.59,2.59,0,0,1,.88.13.92.92,0,0,1,.45.88l.07,1.29c0,.3,0,.52,0,.64a1.25,1.25,0,0,0,.1.31l.06.09H184V144l-.1-.05"/>
        </g>
      </g>
    </g>
  </g>
</svg>
