<svg xmlns="http://www.w3.org/2000/svg" viewBox="0 0 42.52 46.91">
  <defs>
    <style>
      .cls-1, .cls-2 {
        fill: #fff;
      }

      .cls-2 {
        fill-rule: evenodd;
      }
    </style>
  </defs>
  <title>ru</title>
  <g id="Layer_2" data-name="Layer 2">
    <g id="Layer_3" data-name="Layer 3">
      <g>
        <g>
          <path d="M42,42.55a3.86,3.86,0,0,1-3.85,3.86H4.35A3.86,3.86,0,0,1,.5,42.55V4.36A3.86,3.86,0,0,1,4.35.5H38.17A3.86,3.86,0,0,1,42,4.36Z"/>
          <path class="cls-1" d="M38.17,46.91H4.35A4.36,4.36,0,0,1,0,42.55V4.36A4.36,4.36,0,0,1,4.35,0H38.17a4.36,4.36,0,0,1,4.35,4.36V42.55a4.36,4.36,0,0,1-4.35,4.36ZM4.35,1A3.36,3.36,0,0,0,1,4.36V42.55a3.35,3.35,0,0,0,3.35,3.36H38.17a3.35,3.35,0,0,0,3.35-3.36V4.36A3.36,3.36,0,0,0,38.17,1Z"/>
        </g>
        <g>
          <path class="cls-1" d="M22.72,39c6.78.56,10.52-3.65,10.44-9.08a10,10,0,0,0-4.28-7.68c1.58-1.77,3.28-3.61,3.28-6.68,0-5.43-4.27-8.11-9.31-7.56-7.31.8-9.09,9.7-3.78,14C13,26.14,13.24,38.17,22.72,39Zm4-24.95c1.12,2.13-.53,4.31-1.64,5.67-1.52-.59-3.89-2-4.15-3.78C20.48,12.58,25.41,11.47,26.75,14Zm-3.4,10.45c1.55.85,3.46,1.76,4.28,3.41A4.39,4.39,0,0,1,24,34.3C18.6,34.36,19.32,25.68,23.35,24.47Z"/>
          <polygon class="cls-1" points="40.84 22.08 37.19 22.08 37.19 18.43 35.3 18.43 35.3 22.08 31.65 22.08 31.65 23.97 35.3 23.97 35.3 27.63 37.19 27.63 37.19 23.97 40.84 23.97 40.84 22.08"/>
          <path class="cls-2" d="M10.81,8.13h2.38v30H7.78V17.2C5.52,18.49,3,19.87,1.87,20.48V15.19A32.33,32.33,0,0,0,10.81,8.13Z"/>
        </g>
      </g>
    </g>
  </g>
</svg>
