<svg xmlns="http://www.w3.org/2000/svg" viewBox="0 0 508.26 421.43">
  <g id="Layer_2" data-name="Layer 2">
    <g id="Layer_2-2" data-name="Layer 2">
      <g id="stadia-logo-mark">
        <path id="Fill-1" d="M73.5,69.1a7.12,7.12,0,0,0-3,5.77h0V75a7,7,0,0,0,.61,2.8h0l34,77a7.12,7.12,0,0,0,8.91,3.84h0c22.26-7.94,99.36-33.06,149.25-19.51h0s-50,2.9-95.31,38.39h0a7.1,7.1,0,0,0-2.09,8.45h0c3.68,8.3,11.05,25,15.23,34.42h0L187,234.13a4.46,4.46,0,0,0,7.82.7h0c10.56-15.9,28.36-23.85,45.46-30.78h0a261.63,261.63,0,0,1,54.46-15.55h0A237,237,0,0,1,355,186h0a7.12,7.12,0,0,0,7.45-5h0L377.76,132a7.1,7.1,0,0,0-2.6-7.87h0C358,111.71,290.18,70,170.87,86.77h0s101.81-58.48,231.06,5.76h0a7.13,7.13,0,0,0,10-4.25h0L425.43,45a7.09,7.09,0,0,0,.32-2h0v-.2a7.09,7.09,0,0,0-3.6-6.08h0C405.93,27.5,351,0,275.46,0h0c-57.91,0-127.93,16.15-202,69.1" style="fill: #fff;fill-rule: evenodd"/>
      </g>
      <g id="logo-stadia-wordmark">
        <path id="Shape" d="M143.91,421.32H131.55a3.52,3.52,0,0,1-3.52-3.53V346.17H97.74a3.53,3.53,0,0,1-3.5-3.53v-11.1A3.53,3.53,0,0,1,97.76,328h80a3.52,3.52,0,0,1,3.52,3.52v11.1a3.52,3.52,0,0,1-3.52,3.53H147.43v71.62a3.52,3.52,0,0,1-3.52,3.53Zm-57.79-6.77c4.53-4.54,6.38-10.32,6.38-19.93v-2.44c0-9.62-1.85-15.38-6.38-19.93-4.8-4.82-11.17-6.78-22-6.78H25a5.86,5.86,0,0,1-5.86-5.88V352A5.86,5.86,0,0,1,25,346.17h56a3.53,3.53,0,0,0,3.52-3.53v-11.1A3.53,3.53,0,0,0,81.07,328H28.33c-10.78,0-17.14,2-21.95,6.78C1.85,339.34,0,345.11,0,354.72v1.93c0,9.64,1.85,15.39,6.38,19.93,4.81,4.82,11.17,6.78,22,6.78H67.61a5.89,5.89,0,0,1,5.88,5.87v8.06a5.88,5.88,0,0,1-5.88,5.88H8.6a3.52,3.52,0,0,0-3.52,3.53v11.09a3.55,3.55,0,0,0,1,2.5,3.51,3.51,0,0,0,2.49,1H64.19C75,421.32,81.32,419.36,86.12,414.55Zm279.72-40.14v.64c0,18-2.84,27.2-10.87,35.24-7.42,7.43-18.45,11.14-32.87,11.14H279.45a3.52,3.52,0,0,1-3.52-3.53V331.54a3.52,3.52,0,0,1,3.52-3.52h42.66c14.43,0,25.48,3.75,32.87,11.13C363,347.19,365.84,356.44,365.84,374.41Zm-19.4,0c0-12-.76-17.72-5.44-22.41-3.83-3.84-10-5.7-18.9-5.7H295.33v56.87h26.78c8.89,0,15.08-1.87,18.9-5.71,4.69-4.68,5.45-10.44,5.45-22.41Zm50.87,43.38V331.54a3.53,3.53,0,0,0-3.52-3.52H381.44a3.53,3.53,0,0,0-3.52,3.52v86.25a3.53,3.53,0,0,0,3.52,3.53H393.8a3.51,3.51,0,0,0,2.49-1,3.56,3.56,0,0,0,1-2.5Zm-132.75,3.53H251.48a4.71,4.71,0,0,1-4.27-2.74l-6-13.05H192.67l-6,13.05a4.68,4.68,0,0,1-4.23,2.73H169.27a3.52,3.52,0,0,1-3.18-5.05l39.71-82.82a12.36,12.36,0,0,1,22.23,0l39.71,82.81a3.53,3.53,0,0,1-3.17,5.07Zm-64-33.06H233.3L217,351Zm304.14,33.06h-13.1a4.7,4.7,0,0,1-4.27-2.74l-6-13.05H432.82l-6,13.05a4.68,4.68,0,0,1-4.23,2.73H409.43a3.53,3.53,0,0,1-3.18-5.05L446,333.44a12.36,12.36,0,0,1,22.24,0l39.7,82.81a3.53,3.53,0,0,1-3.17,5.07Zm-64-33.06h32.7L457.14,351Z" style="fill: #fff"/>
      </g>
    </g>
  </g>
</svg>
