<svg xmlns="http://www.w3.org/2000/svg" viewBox="0 0 214.9 6.05">
  <g id="Layer_2" data-name="Layer 2">
    <g id="logo">
      <path d="M8.23,3.36H94.92c5.72.1,9.47,1.22,11.32,2.69,1.85-1.5,5.59-2.6,11.31-2.69h89.18a4.12,4.12,0,0,1,3.33,1.7c.65-1.46,4.14-1.67,4.74-1.7h.1v-.7s-4.13-.1-4.84-1.68a4,4,0,0,1-3.47,1.7H117c-5.42-.15-9-1.25-10.8-2.68-1.8,1.43-5.39,2.53-10.8,2.68H8.32A4,4,0,0,1,4.84,1C4.13,2.57,0,2.68,0,2.68v.68H.06c.5,0,4.12.22,4.78,1.7A4,4,0,0,1,8.23,3.36ZM101.44,3c1.9,0,4.18-.66,5-1.51.8.83,1.88,1.51,5,1.51-3.12,0-4.2.66-5,1.52C105.62,3.68,103.34,3,101.44,3Z" style="fill: #9c8857"/>
    </g>
  </g>
</svg>
