<svg xmlns="http://www.w3.org/2000/svg" viewBox="0 0 285.71 358.3">

  <g id="logo">
    <path d="M282.35,63.61c-.38-1.5-.75-2.06-1.5-2.25l-26.92-7.1-3.74-15.34c-.19-.74-.38-1.3-1.13-1.49L221.39,30,218,15.36a2,2,0,0,0-1.49-1.87L144.64.16a10.14,10.14,0,0,0-3.56,0L69.18,13.49a2.05,2.05,0,0,0-1.49,1.87L64.32,30,36.65,37.43c-.75.19-.94.75-1.12,1.49L31.79,54.26,4.86,61.36c-.75.19-1.12.75-1.49,2.25A191.9,191.9,0,0,0,0,99.88C0,207.59,56.1,301.08,139.86,356.8a7.41,7.41,0,0,0,3,1.5,7.39,7.39,0,0,0,3-1.5c83.77-55.72,139.86-149.21,139.86-256.92A192.73,192.73,0,0,0,282.35,63.61Zm-150,243.65c0,.75-.75,1.12-1.5.37-20.56-23.55-34.39-52.34-43.74-83.75l-14.21,9c-3.74,2.61-6.73,1.49-9-2.62-19.07-33.65-31.41-89-32.53-127.87a6.68,6.68,0,0,1,1.87-4.86,179.43,179.43,0,0,1,16.45-17.2c1.12-1.12,2.24-.37,2.24,1.5,0,47.85,8.23,92.35,21.32,121.51,1.12,2.24,2.24,2.24,3.73,1.12l4.12-2.62C73.32,167.05,68.83,120.69,70,67.22c0-1.87.37-2.61,1.5-3.36a131.26,131.26,0,0,1,17.94-9.35c1.87-.75,2.25-.37,2.25,1.12-1.13,77.77,5.23,131.61,19.06,174.61.38,1.12,1.5.75,1.5-.37-.75-15.71-.75-29.54-.75-46.37L110.7,49.28c0-1.5.38-2.25,1.87-2.62a148.06,148.06,0,0,1,18.7-3.36,1,1,0,0,1,1.12,1.12Zm22.43.37c-.74.75-1.49.38-1.49-.37V44.42a1,1,0,0,1,1.12-1.12c50.1,3.36,82.25,24.3,82.25,54.58a50.83,50.83,0,0,1-13.08,34c16.45,4.48,22.81,16.82,22.81,33.27C246.43,194.35,225.11,242.58,154.82,307.63Zm56.83-154.79c-7.85,0-15,3-37,18.7V256c38.14-42.63,49-71.79,49-86.74C223.62,158.83,218.76,152.84,211.65,152.84Zm3-56.08c0-15-17.19-27.29-40-28.79v78.14C203.43,129.29,214.64,112.46,214.64,96.76Z" style="fill: #fff"/>
    <path d="M184.6,356.24l-2.18-5.44h-1.67v7.46h1.16v-5.82l2.34,5.82h.68l2.34-5.82v5.82h1.16V350.8h-1.65ZM173.07,352h2.72v6.31h1.27V352h2.75V350.8h-6.74Z" style="fill: #fff"/>
  </g>

</svg>
