<svg xmlns="http://www.w3.org/2000/svg" viewBox="0 0 913.83 129.82">
  <g id="Layer_2" data-name="Layer 2">
    <g id="TUBE">
      <path d="M64.91,52.06a.36.36,0,0,1,.21.11c19.42,14.76,52.66,51.29,42.52,61.61a64.94,64.94,0,0,1-85.46,0C12.05,103.46,45.28,66.93,64.7,52.17A.36.36,0,0,1,64.91,52.06ZM98.73,9.5a64.93,64.93,0,0,0-67.63,0,.24.24,0,0,0-.11.32c.05.12.18.14.31.11C43.87,7.22,63,18.07,64.78,19.16a.21.21,0,0,0,.27,0C66.86,18.07,86,7.22,98.52,9.93a.26.26,0,0,0,.32-.11A.26.26,0,0,0,98.73,9.5ZM19.47,18.63a1,1,0,0,0-.28.22,64.89,64.89,0,0,0-5.92,85.39.29.29,0,0,0,.35.1.26.26,0,0,0,.07-.33C8.75,88.71,34.05,51.62,47.11,36.07a.26.26,0,0,0,.09-.19.27.27,0,0,0-.11-.21C27.29,16,20.57,18.06,19.47,18.63Zm63.27,17a.26.26,0,0,0-.12.21.31.31,0,0,0,.09.19C95.78,51.62,121.08,88.71,116.13,104c0,.12,0,.27.08.33a.28.28,0,0,0,.34-.1,64.91,64.91,0,0,0-5.91-85.39,1,1,0,0,0-.29-.22C109.26,18.06,102.54,16,82.74,35.67ZM225.9,104.9H212.62L189.75,73.43,166.89,104.9H153.61l29.5-40.61L155.93,26.87h13.28l20.54,28.28L210.3,26.87h13.28L196.4,64.29Zm68.94-22.19c0,6.85-2.27,12.32-6.75,16.26s-11,5.93-19.37,5.93H232.14V70.15H214.75l7.23-10h10.16V26.87h35.05c7.86,0,14,1.88,18.16,5.6a18.82,18.82,0,0,1,6.33,14.73c0,7.5-3.41,13.19-10.12,16.92a20.88,20.88,0,0,1,9.88,7.32A19.33,19.33,0,0,1,294.84,82.71ZM244.06,60.2h22.37c4.5,0,7.92-1,10.17-3s3.37-5,3.37-9a10,10,0,0,0-3.51-8.11c-2.33-1.94-5.71-2.92-10-2.92H244.06Zm38.75,22.29c0-4.1-1.23-7.21-3.67-9.25s-6.17-3.09-11.07-3.09h-24V94.62h24c4.76,0,8.44-1.06,11-3.15S282.81,86.37,282.81,82.49ZM375,65.88a49.6,49.6,0,0,1-2.6,16.46,37.53,37.53,0,0,1-7.81,13,34.33,34.33,0,0,1-12.17,8.47,43.89,43.89,0,0,1-31,0,33.16,33.16,0,0,1-12.06-8.47,36.7,36.7,0,0,1-7.89-13,48.92,48.92,0,0,1-2.63-16.51,49,49,0,0,1,2.63-16.48,37.83,37.83,0,0,1,7.89-13.1,33.16,33.16,0,0,1,12.06-8.38,44.33,44.33,0,0,1,31,0,34.34,34.34,0,0,1,12.17,8.38,38.1,38.1,0,0,1,7.81,13.1A49.81,49.81,0,0,1,375,65.88Zm-63.82,0c0,9.18,2.38,16.55,7.08,21.89s10.91,8.16,18.71,8.16,14.09-2.75,18.7-8.16h0c4.63-5.27,7-12.63,7-21.89s-2.34-16.65-7-22-11-8-18.7-8-14,2.71-18.71,8S311.18,56.78,311.18,65.88Zm101.46-1.59,27.19-37.42H426.55L406,55.15,385.45,26.87H372.17l27.19,37.42-29.5,40.61h13.28L406,73.43l22.86,31.47h13.29Zm128.75-26.7V60.2h38.77v10H541.39v24h43.82V104.9H529.47v-78h55.74V37.59ZM514,68.75c-3.89-3.57-10.36-6.33-19.23-8.22L488,59.11c-6.44-1.38-10.91-3.06-13.29-5-2.36-1.79-3.56-4.48-3.56-8a9.22,9.22,0,0,1,4-8c2.67-1.87,6.58-2.82,11.63-2.82,6.5,0,11.27,1.19,14.19,3.53s4.57,6,4.93,11v.1h11.81v-.11c-.15-7.65-2.83-13.74-8-18.12s-12.9-6.58-23.08-6.58c-8.44,0-15.22,1.94-20.18,5.76A18.59,18.59,0,0,0,459,46.32c0,6.42,2.07,11.52,6.16,15.17s10.19,6.29,18.19,7.89L490,70.8c6.59,1.45,11.2,3.12,13.73,5a9.18,9.18,0,0,1,3.78,7.83,11.1,11.1,0,0,1-4.6,9.58c-3.06,2.2-7.51,3.31-13.21,3.31-6.9,0-12.17-1.46-15.66-4.34s-5.32-7.26-5.42-13V79H456.68v.12c.08,9,3,15.85,8.73,20.52s13.81,7,24.06,7c9.45,0,17-2.11,22.31-6.26s8.07-9.92,8.07-17.13C519.85,77.21,517.87,72.32,514,68.75ZM656.91,95.27l-.76-12.13c-.15-4.3-1.11-7.79-2.86-10.38a14.34,14.34,0,0,0-8-5.46,18.19,18.19,0,0,0,9.38-6.76,20.37,20.37,0,0,0,3.47-12c0-6.71-2.43-12-7.21-15.88s-11.39-5.76-19.68-5.76h-34.1v78h11.92v-32h22.51c4.46,0,7.74,1,9.75,3.08s3.14,5.61,3.35,10.58l.33,8.3c.08,4.52.85,7.89,2.32,10l0,.05h12.28l-.1-.18A22.63,22.63,0,0,1,656.91,95.27ZM609.05,37.15h21.52c4.91,0,8.73,1.06,11.35,3.14s4,5.22,4,9.31c0,4.25-1.3,7.56-3.84,9.86s-6.12,3.47-10.58,3.47h-22.4Zm59.84,67.75h11.92v-78H668.89Zm79.57-67.31V26.87H692.73v78h55.73V94.18H704.65v-24h38.76v-10H704.65V37.59ZM812,68.75c-3.9-3.57-10.37-6.33-19.23-8.22L786,59.11c-6.43-1.38-10.9-3.06-13.28-5-2.36-1.79-3.56-4.48-3.56-8a9.22,9.22,0,0,1,4-8c2.66-1.87,6.58-2.82,11.63-2.82,6.5,0,11.27,1.19,14.19,3.53s4.57,6,4.93,11v.1h11.81v-.11c-.15-7.65-2.83-13.74-8-18.12s-12.89-6.58-23.07-6.58c-8.44,0-15.23,1.94-20.18,5.76A18.59,18.59,0,0,0,757,46.32c0,6.42,2.07,11.52,6.16,15.17s10.19,6.29,18.19,7.89L788,70.8c6.58,1.45,11.2,3.12,13.73,5a9.17,9.17,0,0,1,3.77,7.83c0,4.17-1.54,7.39-4.59,9.58s-7.51,3.31-13.21,3.31c-6.9,0-12.17-1.46-15.66-4.34s-5.32-7.26-5.43-13V79H754.7v.12c.08,9,3,15.85,8.73,20.52s13.81,7,24.06,7c9.45,0,17-2.11,22.31-6.26s8.07-9.92,8.07-17.13C817.87,77.21,815.89,72.32,812,68.75Zm72.33-4.46,27.19-37.42H898.23L877.68,55.15,857.14,26.87H843.85L871,64.29l-29.5,40.61h13.28l22.86-31.47,22.87,31.47h13.28Z" style="fill: #fff"/>
    </g>
  </g>
</svg>
