<svg xmlns="http://www.w3.org/2000/svg" viewBox="0 0 161.78 32.23">
  <defs>
    <style>
      .cls-1 {
        fill: #fff;
      }
    </style>
  </defs>
  <title>xbox-one</title>
  <g id="Layer_2" data-name="Layer 2">
    <g id="Layer_1-2" data-name="Layer 1">
      <g>
        <polygon class="cls-1" points="103.5 26.03 97.33 17.65 91.16 26.03 88.62 26.03 96.05 15.91 89.26 6.7 91.81 6.7 97.33 14.21 102.86 6.7 105.39 6.7 98.62 15.91 106.05 26.03 103.5 26.03"/>
        <polygon class="cls-1" points="55.38 26.03 47.95 15.91 54.73 6.7 52.19 6.7 46.66 14.21 41.14 6.7 38.61 6.7 45.38 15.91 37.95 26.03 40.5 26.03 46.67 17.65 52.84 26.03 55.38 26.03"/>
        <g>
          <path class="cls-1" d="M69.51,16.64a5.48,5.48,0,0,0-1.26-.81A4.38,4.38,0,0,0,70.57,12c0-1.24-.45-5.26-6.28-5.26H56.44V15H53.82c-.34.44-1.11,1.5-1.4,1.94h4V26h7.85c4.25,0,6.89-2.16,6.89-5.64a4.74,4.74,0,0,0-1.67-3.75M58.61,8.72h5.68c1.53,0,4.11.38,4.11,3.07,0,2-1.5,3.25-4.11,3.25H58.61ZM64.29,24H58.61V17h5.68c2.15,0,4.73.59,4.73,3.37,0,3.19-3,3.67-4.73,3.67"/>
          <path class="cls-1" d="M81.39,6.26c-5.43,0-9.22,4.15-9.22,10.1s3.79,10.1,9.22,10.1,9.21-4.15,9.21-10.1-3.78-10.1-9.21-10.1m0,18.16c-4.13,0-7-3.32-7-8.06s2.9-8.06,7-8.06,7,3.31,7,8.06-2.89,8.06-7,8.06"/>
          <path class="cls-1" d="M4.81,4.63l0,0h0a16.11,16.11,0,0,0-1.5,21.22s.06.05.09,0a.06.06,0,0,0,0-.08c-1.23-3.8,5-13,8.3-16.87a.05.05,0,0,0,0,0s0,0,0-.06c-5.46-5.43-6.91-4.19-6.9-4.2"/>
          <path class="cls-1" d="M27.42,4.63v0h0a16.08,16.08,0,0,1,1.5,21.22s-.05.05-.08,0a.06.06,0,0,1,0-.08c1.23-3.8-5-13-8.29-16.88a.05.05,0,0,1,0,0,.05.05,0,0,1,0-.05c5.46-5.44,6.9-4.19,6.88-4.2"/>
          <path class="cls-1" d="M16.11,0a15.87,15.87,0,0,1,8.4,2.36.05.05,0,0,1,0,.08s0,0-.07,0c-3.12-.67-7.86,2-8.31,2.3h-.07c-1.19-.69-5.57-3-8.33-2.28a.06.06,0,0,1-.08,0,.07.07,0,0,1,0-.08A15.85,15.85,0,0,1,16.11,0"/>
          <path class="cls-1" d="M16.11,12.92l.06,0C21,16.62,29.24,25.68,26.72,28.24h0a16.09,16.09,0,0,1-21.21,0h0C3,25.68,11.24,16.62,16.06,13l.05,0"/>
          <polygon class="cls-1" points="143.56 6.7 143.56 22.56 131.88 6.69 129.96 6.69 129.96 26 132.11 26 132.11 10.49 143.56 26.01 145.71 26.02 145.71 6.7 143.56 6.7"/>
          <path class="cls-1" d="M118.79,6.25c-5.43,0-9.23,4.16-9.23,10.1s3.8,10.11,9.23,10.11S128,22.31,128,16.35s-3.79-10.1-9.21-10.1m0,18.17c-4.14,0-7-3.32-7-8.07s2.9-8.06,7-8.06,7,3.32,7,8.06-2.88,8.07-7,8.07"/>
          <polygon class="cls-1" points="150.29 24.13 150.29 16.98 160.93 16.98 160.93 15.09 150.29 15.09 150.29 8.58 161.65 8.58 161.65 6.69 148.13 6.69 148.13 26.02 161.78 26.02 161.78 24.13 150.29 24.13"/>
        </g>
      </g>
    </g>
  </g>
</svg>
